/* XPM */
static char *back11709881247[] = {
/* columns rows colors chars-per-pixel */
"65 64 16 1 ",
"  c None",
". c black",
"X c gray11",
"o c #2C2D2E",
"O c #393A3B",
"+ c #5E3B22",
"@ c #23601A",
"# c #7D3D42",
"$ c #865138",
"% c #EC7400",
"& c #C2765F",
"* c #2B8D1E",
"= c #F8B900",
"- c #DD946A",
"; c #1B4F9B",
": c #FCCDB3",
/* pixels */
"                                                                 ",
"                                                                 ",
"                                                                 ",
"                                                                 ",
"                                                                 ",
"                                                                 ",
"                                                                 ",
"                                                                 ",
"                                                                 ",
"                                                                 ",
"                                                                 ",
"                                                                 ",
"                          ++++++++++                             ",
"                          ++++++++++                             ",
"                      ++++&&$$$$&&$$++++                         ",
"                      ++++&&$$$$&&$$++++                         ",
"                    ++$$&&$$++++++$$$$$$..                       ",
"                    ++$$&&$$++++++$$$$$$..                       ",
"                  ++$$&&&&++$$$$&&..&&$$$$..                     ",
"                  ++$$&&&&++$$$$&&..&&$$$$..                     ",
"                ++$$$$&&++$$$$&&&&&&..$$$$$$++                   ",
"                ++$$$$&&++$$$$&&&&&&..$$$$$$++                   ",
"                ++$$$$$$++&&$$++++@@@@..$$$$..                   ",
"                ++$$$$$$++&&$$++++@@@@..$$$$..                   ",
"              ++++$$++$$..$$&&$$@@**$$$$..$$++..                 ",
"              ++++$$++$$..$$&&$$@@**$$$$..$$++..                 ",
"            ..++$$++$$$$$$......**$$++$$$$..++..                 ",
"            ..++$$++$$$$$$......**$$++$$$$..++..                 ",
"            ..$$$$++$$++$$$$$$$$..++$$$$$$..++..                 ",
"            ..$$$$++$$++$$$$$$$$..++$$$$$$..++..                 ",
"            ....$$++++++$$$$$$$$$$..@@@@..++++..                 ",
"            ....$$++++++$$$$$$$$$$..@@@@..++++..                 ",
"              ++..++++++++++$$$$..******..++++..                 ",
"              ++..++++++++++$$$$..******..++++..                 ",
"                ..++++++++++++++..++++++..++..                   ",
"                ..++++++++++++++..++++++..++..                   ",
"                ..++++++++++....**++++++..++..                   ",
"                ..++++++++++....**++++++..++..                   ",
"                  ..++++++..++++++**++..++..                     ",
"                  ..++++++..++++++**++..++..                     ",
"                    ..++..++++++++++..++..                       ",
"                    ..++..++++++++++..++..                       ",
"                    ................++++++                       ",
"                    ................++++++                       ",
"                  ..ooooOO..++++++..OOoooo..                     ",
"                  ..ooooOO..++++++..OOoooo..                     ",
"                %%==ooXXooXXXXXXXXXXooXXoo==%%                   ",
"                %%==ooXXooXXXXXXXXXXooXXoo==%%                   ",
"              ##::--==..--XXooooooXX--..==--::##                 ",
"              ##::--==..--XXooooooXX--..==--::##                 ",
"              ##::::%%XX..----------..XX%%::::##                 ",
"              ##::::%%XX..----------..XX%%::::##                 ",
"                ####XXooooooXXXXXXooooooXX####                   ",
"                ####XXooooooXXXXXXooooooXX####                   ",
"                    ..;;XXooooooooooXX;;..                       ",
"                    ..;;XXooooooooooXX;;..                       ",
"                    ..;;;;..........;;;;..                       ",
"                    ..;;;;..........;;;;..                       ",
"                      ....          ....                         ",
"                      ....          ....                         ",
"                                                                 ",
"                                                                 ",
"                                                                 ",
"                                                                 "
};
