/* XPM */
static char *right11709881247[] = {
/* columns rows colors chars-per-pixel */
"65 64 19 1 ",
"  c None",
". c black",
"X c gray11",
"o c #2C2D2E",
"O c #3C3D3D",
"+ c #65391C",
"@ c #006205",
"# c #904E32",
"$ c #FF6B00",
"% c #883840",
"& c #D07159",
"* c #009000",
"= c #FFB700",
"- c #EB9061",
"; c #004FA0",
": c #007DF0",
"> c #FFCBAF",
", c #EAE6FC",
"< c white",
/* pixels */
"                                                                 ",
"                                                                 ",
"                                                                 ",
"                                                                 ",
"                                                                 ",
"                                                                 ",
"                                                                 ",
"                                                                 ",
"                                                                 ",
"                                                                 ",
"                                                                 ",
"                        ++++++++                                 ",
"                        ++++++++                                 ",
"                    ++++########++++                             ",
"                    ++++########++++                             ",
"                  ++####++++++####&&++..                         ",
"                  ++####++++++####&&++..                         ",
"            ++....########++++####&&&&##..                       ",
"            ++....########++++####&&&&##..                       ",
"        ++++##..##############++++&&&&####..                     ",
"        ++++##..##############++++&&&&####..                     ",
"      ++######..########&&##++##&&&&####++..                     ",
"      ++######..########&&##++##&&&&####++..                     ",
"    ++######..############++&&&&######++####..                   ",
"    ++######..############++&&&&######++####..                   ",
"      ++####..##########++##++########++####..                   ",
"      ++####..##########++##++########++####..                   ",
"      ..**##..**@@######++++########++######..                   ",
"      ..**##..**@@######++++########++######..                   ",
"    ..##..**..@@**@@++++##########..++######..                   ",
"    ..##..**..@@**@@++++##########..++######..                   ",
"    ..####@@..++@@**@@##########..##>>++....                     ",
"    ..####@@..++@@**@@##########..##>>++....                     ",
"    ..######..@@++..@@########..##....>>%%                       ",
"    ..######..@@++..@@########..##....>>%%                       ",
"      ..@@**..@@++++..**@@....##..,,**>>%%                       ",
"      ..@@**..@@++++..**@@....##..,,**>>%%                       ",
"        ..@@....@@++++....----##++,,@@>>%%                       ",
"        ..@@....@@++++....----##++,,@@>>%%                       ",
"        ..####....++++++..----++>>>>>>>>--                       ",
"        ..####....++++++..----++>>>>>>>>--                       ",
"        ..####..  ..++++++..++..-->>>>%%                         ",
"        ..####..  ..++++++..++..-->>>>%%                         ",
"          ..##..      ..++..++..%%%%%%                           ",
"          ..##..      ..++..++..%%%%%%                           ",
"            ....        ..XXOOooOO..                             ",
"            ....        ..XXOOooOO..                             ",
"              ..      ..XXOO====ooOOXX                           ",
"              ..     <..XXOO====ooOOXX                           ",
"                    ..ooXX$$>>>>$$XXXX                           ",
"                    ..ooXX$$>>>>$$XXXX                           ",
"                    ..oooo..----..ooXX                           ",
"                    ..oooo..----..ooXX                           ",
"                      ..XXoo....XXXX                             ",
"                      ..XXoo....XXXX                             ",
"                        ..;;::::..                               ",
"                        ..;;::::..                               ",
"                          ......                                 ",
"                          ......                                 ",
"                                                                 ",
"                                                                 ",
"                                                                 ",
"                                                                 ",
"                                                                 "
};
