/* XPM */
static char *_bab6a6f2cf64c0bf75b8fa9fa0ee8dbhMDKSaJ7l1SOQFCW[] = {
/* columns rows colors chars-per-pixel */
"64 64 15 1 ",
"  c #C0D470",
". c #C1D570",
"X c #C1D470",
"o c #B9CF6D",
"O c #AAC566",
"+ c #A2C063",
"@ c #BED36F",
"# c #BBD06E",
"$ c #BBD06D",
"% c #B0C968",
"& c #AAC666",
"* c #BAD06D",
"= c #AFC968",
"- c #A9C666",
"; c white",
/* pixels */
"        ..              ..    ..                            XoO+",
"       @##@            @##@  @##@                            $%&",
"      X*==*X          X*==*..*==*X                XX         @#o",
"      X*==*X          X*==*..*==*X               @##@         ..",
"       @##@            @##@  @##@               X*==*X        ..",
"        XX              XX    XX                X*==*X       @#o",
"                                                 @##@       X*=-",
"                                                  XX        X*=-",
"                                                             @#o",
"                                                              XX",
"                                        XX                      ",
"                                       @##@                     ",
"              XX                      X*==*X          XX        ",
"             @##@                     X*==*X         @##@       ",
"            X*==*X                     @##@         X*==*X      ",
"            X*==*X                      XX          X*==*X      ",
"             @##@                                    @##@       ",
"              XX                                      XX        ",
"                                                                ",
"                                                                ",
"                                                                ",
"                                                                ",
"                                                                ",
"                                                                ",
"                                                                ",
"                                                                ",
"                                                                ",
"                                                                ",
"                                                                ",
"                                                                ",
"    XX                                                      XX  ",
"   @##@                                                    @##@ ",
"  X*==*X                                                  X*==*X",
"  X*==*X                                                  X*==*X",
"   @##@                                                    @##@ ",
"    XX                                                      XX  ",
"                                                                ",
"                                                                ",
"                                                                ",
"                                                                ",
"                                                                ",
"                                                                ",
"                                                                ",
"                                                                ",
"          XX                          XX                        ",
"         @##@                        @##@                       ",
"        X*==*X                      X*==*X                    XX",
"        X*==*X                      X*==*X                   @#o",
"         @##@       XX               @##@                   X*=-",
"          XX       @##@               XX                    X*=-",
"                  X*==*X                                     @#o",
"                  X*==*X                                      XX",
"                   @##@       XX                                ",
"                    XX       @##@                               ",
"                            X*==*X                              ",
"                            X*==*X                              ",
"                             @##@                       XX      ",
"                              XX                       @##@     ",
"                                                      X*==*X    ",
"                                                      X*==*X    ",
"                                                       @##@     ",
"                                                        XX      ",
"                                                                ",
"                                                                "
};
