/* XPM */
static char *_f25b3f0973a4f41d77c0e42149b9537uMFV7xldit6DYDjm[] = {
/* columns rows colors chars-per-pixel */
"51 64 110 2 ",
"   c None",
".  c #301504",
"X  c #321404",
"o  c #321504",
"O  c #341705",
"+  c #371705",
"@  c #391705",
"#  c #371805",
"$  c #53080E",
"%  c #53090E",
"&  c #54090E",
"*  c #56090E",
"=  c #441E07",
"-  c #451E07",
";  c #451F07",
":  c #431F0A",
">  c #441E08",
",  c #451E08",
"<  c #441E0A",
"1  c #50160A",
"2  c #54160B",
"3  c #5B1B0B",
"4  c #5B1C0B",
"5  c #5C1B0D",
"6  c #5F0A10",
"7  c #600A10",
"8  c #630A10",
"9  c #720C12",
"0  c #750D14",
"q  c #760C14",
"w  c #770C14",
"e  c #760D14",
"r  c #740D16",
"t  c #780C14",
"y  c #7C0D14",
"u  c #7D0D14",
"i  c #6F1112",
"p  c #761113",
"a  c #532408",
"s  c #542408",
"d  c #79220F",
"f  c #74330C",
"g  c #76330C",
"h  c #77330C",
"j  c #75340D",
"k  c #76340C",
"l  c #77340D",
"z  c #77350E",
"x  c #77350F",
"c  c #78340D",
"v  c #792210",
"b  c #820D15",
"n  c #860E16",
"m  c #920F18",
"M  c #970F18",
"N  c #851B13",
"B  c #871B13",
"V  c #9E101A",
"C  c #9F101A",
"Z  c #A5121B",
"A  c #A5121C",
"S  c #B1121D",
"D  c #B2121D",
"F  c #B3121D",
"G  c #B3131D",
"H  c #B2131E",
"J  c #B4121D",
"K  c #B5121D",
"L  c #B6131D",
"P  c #BE141F",
"I  c #BE1F1E",
"U  c #AB201A",
"Y  c #AB211A",
"T  c #BD1420",
"R  c #BD1520",
"E  c #C1141F",
"W  c #D61723",
"Q  c #D71723",
"!  c #DA1724",
"~  c #DC1724",
"^  c #DA1824",
"/  c #E11825",
"(  c #E21825",
")  c #EC1A27",
"_  c #EE1A27",
"`  c #F01A28",
"'  c #F11A28",
"]  c #FA1B2A",
"[  c #FB1C2A",
"{  c #FA1D2A",
"}  c #FD1C2A",
"|  c #FD1D2B",
" . c #FE1C2A",
".. c #FE1C2B",
"X. c #FF1C2B",
"o. c #FE1D2B",
"O. c #FF1D2B",
"+. c #FD1E2C",
"@. c #FD2A37",
"#. c #FC2C39",
"$. c #FD2C39",
"%. c #FC3340",
"&. c #FC3743",
"*. c #FB5E68",
"=. c #FB616A",
"-. c #FB626B",
";. c #FD8089",
":. c #FE9299",
">. c #FE939A",
",. c #FF969D",
/* pixels */
"                                                                                                      ",
"                                                                                                      ",
"                                                                                                      ",
"                                                                                                      ",
"                                                                                                      ",
"                                                                                                      ",
"                                                                                                      ",
"                                                                                                      ",
"                                                                                                      ",
"                                                        z z z                                         ",
"                                                        c c c                                         ",
"                                                        c c z                                         ",
"                                                  z z z - - -                                         ",
"                                                  z g z - - :                                         ",
"                                                  z g z - > :                                         ",
"                                                  z g g                                               ",
"                                                  z g g                                               ",
"                                                  g g g                                               ",
"                                        w w w w w X X X > > :                                         ",
"                                        w w w w w X X X - - >                                         ",
"                                        m m p i i @ # + 4 3 5                                         ",
"                            w w w w w H O.O.d a a a a s H J H & & & & &                               ",
"                            w w w w w H O.O.v a a a a s H J H & & & & &                               ",
"                            R R R R R ^ O.O.I Y Y N N N ! ! Q n n n n n 9                             ",
"                      w w t O.O.O.O.O.O.O.O.O.O.O.J J J O.O.[ J J J J J y & &                         ",
"                      w w t O.O.O.O.O.O.O.O.O.O.O.J J J O.O.[ J J J J J y & &                         ",
"                      w w t O.O.@.;.;.;.;.;.%.O.O.' ' ' O.O.O.' ' / J J y & &                         ",
"                      w w t O.O.$.,.,.,.,.,.&.O.O.O.O.O.O.O.O.O.O._ J J y & &                         ",
"                      w w t O.O.$.,.,.,.,.,.&.O.O.O.O.O.O.O.O.O.O._ J J y & &                         ",
"                w w w ] [ [ >.>.>.,.,.-.+.+.O.O.} O.O.O.O.O.O.O.O._ J J H H H 6 & &                   ",
"                w w w O.O.O.,.,.,.,.,.-.O.O.O.O.O.O.O.O.O.O.O.O.O._ J J J J J 6 & &                   ",
"                w w w O.O.O.,.,.,.,.,.-.O.O.O.O.O.O.O.O.O.O.O.O.O._ J J J J J 6 & &                   ",
"                w w w O.O.O.,.,.,.,.,.-.O.O.O.O.O.O.O.O.O.O.O.O.O._ J J J J J 6 & &                   ",
"                w w w O.O.O.,.,.,.,.,.-.O.O.O.O.O.O.O.O.O.O.O.O.O._ J J J J J 6 & &                   ",
"                w w w O.O.O.>.>.>.>.>.*.O.O.O.O.} } O.O.O.O.O.O.O._ J J J J J 6 & &                   ",
"                w w w O.O.O.O.O.O.O.O.O.O.O.O.O.O.} } O.O.O.O.O.O._ J J J J J 6 & &                   ",
"                w w w O.O.O.O.O.} } O.O.O.O.O.O.O.O.O.} } } O.O.O._ J J J J J 6 & &                   ",
"                w w w O.O.O.O.O.} } O.O.O.O.O.O.O.O.O.O.O.O.O._ _ / J H J J J 6 & &                   ",
"                w w w O.O.O.O.O.O.O.O.O.O.O.O.O.O.O.O.O.O.O.[ J J J J J J J J 6 & &                   ",
"                w w w O.O.O.O.O.O.O.O.O.O.O.O.O.O.O.O.O.O.O.[ J J J J J J J J 6 & &                   ",
"                      A A Z Q Q ~ O.O.O.O.O.O.O.O.O.O.O.Q Q Q J J J J J M b b                         ",
"                      & & & J J P O.O.O.O.O.O.O.O.O.O.O.J J J J J J J J y & &                         ",
"                      % & & J J P O.O.O.O.O.O.O.O.O.O.O.J J J J J J J J y & &                         ",
"                      % & & J J J E E E E E E E E E E E J J J J J J J J y & &                         ",
"                      & & & J J J J J J H H J J J J J J J J J J J J J J y & &                         ",
"                      & & & J J J J J J H H J J J J J J J J J J J J J J y & &                         ",
"                            & & 7 J J J J J 2 + + + + + J J J J J V & &                               ",
"                            & & 7 J J J J J 1 + + + + + J J J J J V & &                               ",
"                            & & 7 J J J J J 1 + + + + + J J J J J V & &                               ",
"                                  & & & & &             & & & & & %                                   ",
"                                  & & & & &             & & & & & %                                   ",
"                                  & & & & &             & & & % & %                                   ",
"                                                                                                      ",
"                                                                                                      ",
"                                                                                                      ",
"                                                                                                      ",
"                                                                                                      ",
"                                                                                                      ",
"                                                                                                      ",
"                                                                                                      ",
"                                                                                                      ",
"                                                                                                      ",
"                                                                                                      ",
"                                                                                                      "
};
