/* XPM */
static char *ba72dc3e09c04a0de0391ea9798cf16fgbqNh3YJRzYWOxEg[] = {
/* columns rows colors chars-per-pixel */
"64 64 147 2 ",
"   c None",
".  c #211F34",
"X  c #232034",
"o  c #2C2336",
"O  c #312536",
"+  c #372936",
"@  c #392937",
"#  c #3D263A",
"$  c #352C39",
"%  c #3A2D39",
"&  c #3F303A",
"*  c #41273B",
"=  c #45293B",
"-  c #4A2C3B",
";  c #522F3C",
":  c #44343C",
">  c #4B343D",
",  c #4D3A3E",
"<  c #52313D",
"1  c #513D3F",
"2  c #653C3C",
"3  c #6B3E3C",
"4  c #5B413F",
"5  c #6E433E",
"6  c #73423D",
"7  c #7E473D",
"8  c #7E483D",
"9  c #4E3B40",
"0  c #523C40",
"q  c #5D3A42",
"w  c #613D43",
"e  c #574041",
"r  c #594140",
"t  c #664144",
"y  c #6A4345",
"u  c #744941",
"i  c #7D4D43",
"p  c #814F42",
"a  c #845144",
"s  c #8C5545",
"d  c #815B4F",
"f  c #885E4A",
"g  c #925945",
"h  c #815B50",
"j  c #895D51",
"k  c #8C604B",
"l  c #97674D",
"z  c #9C6A4E",
"x  c #8D6253",
"c  c #926454",
"v  c #996755",
"b  c #9B6B57",
"n  c #9E6D58",
"m  c #A36D4F",
"M  c #A36D4E",
"N  c #A16C4F",
"B  c #A46D4F",
"V  c #A56E4F",
"C  c #A66F4F",
"Z  c #A76F4F",
"A  c #A36D4F",
"S  c #AE714F",
"D  c #AD714F",
"F  c #A26B50",
"G  c #A36B50",
"H  c #A56C50",
"J  c #A56D50",
"K  c #A76F50",
"L  c #A36C56",
"P  c #A46D56",
"I  c #A56F57",
"U  c #A36C55",
"Y  c #AA6F50",
"T  c #A06C58",
"R  c #A06D58",
"E  c #A16D58",
"W  c #A26D58",
"Q  c #A26E59",
"!  c #A36E59",
"~  c #A56F58",
"^  c #A46F59",
"/  c #A66F58",
"(  c #A26D58",
")  c #A87150",
"_  c #A87250",
"`  c #A97250",
"'  c #A97251",
"]  c #AA7250",
"[  c #AA7251",
"{  c #AA7351",
"}  c #AB7351",
"|  c #AE7250",
" . c #AD7352",
".. c #AE7352",
"X. c #AC7452",
"o. c #AD7452",
"O. c #AF7452",
"+. c #AE7552",
"@. c #AD7351",
"#. c #A67058",
"$. c #A77058",
"%. c #A77158",
"&. c #A77159",
"*. c #A77058",
"=. c #A87158",
"-. c #A87159",
";. c #A97159",
":. c #A97259",
">. c #AA7359",
",. c #AB755B",
"<. c #AC765B",
"1. c #AB755C",
"2. c #AC755C",
"3. c #AC765C",
"4. c #AD765C",
"5. c #AE775C",
"6. c #AE775D",
"7. c #AD765C",
"8. c #AF785C",
"9. c #AF785C",
"0. c #B07350",
"q. c #B17350",
"w. c #B17552",
"e. c #B17553",
"r. c #B27653",
"t. c #B47651",
"y. c #B47652",
"u. c #B47752",
"i. c #B57752",
"p. c #B17451",
"a. c #B57852",
"s. c #B67852",
"d. c #B77952",
"f. c #B77853",
"g. c #B77953",
"h. c #B77953",
"j. c #B87953",
"k. c #BB7D54",
"l. c #BB7D55",
"z. c #BC7D55",
"x. c #BC7E55",
"c. c #BD7E55",
"v. c #BE7E55",
"b. c #BE7F55",
"n. c #BF7F55",
"m. c #BD7E55",
"M. c #BF8055",
/* pixels */
"                                                          $ $ $ $ $ $                                                           ",
"                                                      $ $ z ` ` ` ` z $ $                                                       ",
"                                                  $ : d : ` M.c.c.M.` : d : $                                                   ",
"                                              $ : c n b : ` c.c.c.c.` : b n c : X                                               ",
"                                          $ : c n <.8.b : ` c.c.c.c.` : b 8.4.x $ $ $                                           ",
"                                      $ : c n <.4.4.4.b : ` c.c.c.c.` : b 4.4.n , z z : $                                       ",
"                                  $ : c n 4.4.4.4.4.4.b : ` c.c.c.c.` : b 4.4.~ a t.c.o.z : $                                   ",
"                              $ : c n 1.:.:.4.4.4.4.4.n : ` c.c.c.c.` : n 4.4.#.s t.c.c.l.o.z : $                               ",
"                          $ : c n ,.:.L s s :.4.4.4.4.x : ` c.c.c.c.` : x 4.4.~ p t.c.c.c.c.l.o.z : $                           ",
"                      $ : c n <.4.:.s s L :.4.4.<.n c 9 % ` c.c.c.c.` % 9 b ~ n , ` c.c.c.c.c.c.l.o.z : $                       ",
"                  $ : c n <.4.4.4.4.:.:.4.4.4.n c 9 9 h : ` c.c.c.c.` : j a y j : ` M.c.c.c.c.c.c.c.l.o.z : $                   ",
"              $ % x n <.4.4.4.4.4.4.4.4.1.n c : 9 c n b : ` c.c.c.c.` : v :.v w q G e.c.c.c.c.c.c.c.c.c.l.o.z : $               ",
"          $ : l p #.4.4.4.4.4.4.4.4.<.n b 0 q > c 4.8.b : ` c.c.c.c.` : i P #.R v t y N o.l.c.c.c.c.c.c.c.c.l.o.z : $           ",
"      X : z o.t.s #.4.4.4.4.4.4.<.n c e a K N q R 4.4.b : ` c.c.c.c.` : c s s :.4.R v 9 1 C a.c.c.c.c.c.c.c.c.c.l.o.z : X       ",
"      $ z c.c.S p ~ 4.4.4.4.<.n c 9 1 z a.c.o.w R 4.4.b : ` c.c.c.c.` : b :.:.4.4.4.<.n b s s q.a.c.c.c.c.c.c.c.c.c.c.z $       ",
"      $ ` j.q.a : n 4.4.<.n c 9 1 z o.l.c.c...w R 4.4.n : ` c.c.c.c.` : n 4.4.4.4.4.4.4.4.:.L s s ..o.l.c.c.c.c.c.c.c.` $       ",
"      % m g g z : n 4.n c 9 1 z o.l.c.c.c.c...w R 8.4.x : ` c.c.c.c.` : x 4.4.4.4.4.4.4.4.4.4.:.P a r z o.l.c.c.c.c.c.` $       ",
"      $ ` a.a.` : x c 9 1 z o.l.c.c.c.c.c.c...q n n c , % ` c.c.c.c.{ % , c n <.4.4.4.4.4.4.4.4.4.#.c : 1 z o.l.c.c.c.` $       ",
"      $ ` M.c.z $ & 1 z o.l.c.c.c.c.c.c.c.c.` : h 9 1 k : ` c.c.c.c.` : k 1 9 c n ,.4.4.4.4.4.4.4.4.n : k 1 1 z o.l.M.` $       ",
"      $ ` e.m 1 : z o.l.c.c.c.c.c.c.c.c.c.a.C : , z o.` > ` c.c.c.c.` > ` o.z 1 0 b :.4.4.4.4.4.4.4.b : ` o.z 1 1 z o.` $       ",
"      $ l y y m o.c.c.c.c.c.c.c.c.c.l.o...g s C o.c.c.m : ` c.c.c.c.` : ` M.l.o.C s s b n ,.4.4.4.4.n > ` M.l.o.z 1 1 k $       ",
"      o t K e.l.a.a.c.c.c.c.c.c.l.o.z 4 s q.a.c.c.a.q.a : ` c.c.c.c.` : ` c.c.c.c.a.C 1 0 b :.4.4.4.n q ..c.c.c.l.o.z , X       ",
"      $ z c.c.a.g g q.a.c.c.l.o.z 1 1 z a.c.c.c.a.g g z : ` c.c.c.c.` : ` c.c.c.c.c.l.o.C s s b n 4.R w ..c.c.c.c.c.a.l $       ",
"      $ ` c.c.c.a.q.g g a.o.z 1 1 z o.l.c.c.c.c.c.a.a.` : ` c.c.c.c.` : ` c.c.c.c.c.c.c.a.s v 9 9 c c q o.c.c.c.c.a.g p O       ",
"      $ ` c.c.c.c.c.t.C z , : z o.l.c.c.c.c.c.c.c.c.c.` : ` c.c.c.c.` : ` c.c.c.c.c.c.c.t.s P n c 9 : < G c.c.c.c.c.a.m $       ",
"      $ ` c.c.c.l.o.z 1 0 d : ` M.c.c.c.c.c.c.c.c.c.c.` : ` c.c.c.c.` : m c.c.c.c.c.c.c.t.s #.4.<.n c q t K e.c.c.c.c.` $       ",
"      $ ` c.c.a.C 1 9 c n b : ` c.c.c.c.c.c.c.c.c.c.c.` : ` c.c.c.c.` : a j.c.c.c.c.c.c.t.a ~ 4.4.4.4.R v t y m o.l.M.` $       ",
"      $ ` j.q.s s b n <.8.n , ` c.c.c.c.c.c.c.c.c.c.c.` : C c.c.c.c.C : m c.c.c.c.c.c.c.o.w R 4.4.4.4.4.4.R c : , z o.` $       ",
"      $ z g s L :.4.4.4.4.~ p t.c.c.c.c.c.c.c.c.c.c.c.` : u Y o.o.Y u % C c.c.c.c.c.c.c...w R 4.4.4.4.4.4.8.n : d 0 1 k $       ",
"      O a P :.4.4.4.4.4.4.#.s t.c.a.a.c.c.c.c.c.c.a.a.z $ * > > > > * O u ..a.c.c.c.c.c...w R 4.4.4.4.4.4.4.b : b n c , X       ",
"      $ v 4.4.4.4.4.4.4.4.#.s S q.g g a.c.c.c.a...p 6 * o o X o o X o X @ 6 p ..a.c.c.c...w R 4.4.4.4.4.4.4.v : b 8.4.x $       ",
"      $ b 4.4.4.4.4.4.4.4.#.p s g q.a.c.c.a...p 6 @ o # * # o # # o # * # o @ 6 p ..a.c...q n 4.4.4.4.4.:.P i & b 4.4.n $       ",
"      $ b 4.4.4.4.4.4.4.4.~ p S a.c.c.a...p 6 @ O # o * = * o * * o * = * o # O @ 6 p q.C > n 4.4.4.4.:.s s c : b 4.4.b $       ",
"      $ b 4.4.4.4.4.4.4.4.n , o.c.a...p 6 @ O # * * o * = * o * * o * = * o * * # O @ 6 5 % b 4.4.4.4.4.:.:.b : b 4.4.b $       ",
"      $ b 4.4.4.4.4.4.4.4.b : m q.p 5 + o # # * * # o # * # o # # o # * # o # * * # # o o o u L :.4.4.4.4.4.b : b 4.4.b $       ",
"      $ b 4.:.:.4.4.4.4.4.b % 5 6 @ o X X o o o o o X o o o X o o X o o o X o o o o o X X X @ 5 i L :.4.4.4.b : b 4.4.b $       ",
"      $ v P s s :.4.4.:.L u o o O # * * * * * * * * * * * * = = = = * * * * * * * * * * * * # O @ 5 i L :.4.b : b 4.4.b $       ",
"      O i s L :.<.:.L i 5 @ o # * = = = = = = = = = = = - ; 6 6 6 6 ; - = = = = = = = = = = = * # O @ 5 i L v : b 4.4.b $       ",
"      $ v :.<.:.L i 5 + O # * = = = = = = = = = = = - ; 6 6 8 8 8 8 6 6 ; - = = = = = = = = = = = * # O + 6 5 % b 4.4.b $       ",
"      $ n :.L i 5 @ o X # * * * * * * * * * * * * = 2 5 6 6 6 6 6 6 6 6 5 2 = * * * * * * * * * * * * # X o o o u L :.b $       ",
"      $ c i 5 @ O # # X o o o o o o o o o o o o o o O O O O O O O O O O O O o o o o o o o o o o o o o o X # # o @ 5 i c $       ",
"      o 2 + O # * = * o # * * * * * * * = = = = = = = = = * = = = = = = = * # # # # # # # # # # * * * # o * = * # O + 2 o       ",
"      X o X # = = = * o * = = = = * * = 2 3 3 3 3 3 3 6 6 ; 6 6 6 6 6 6 3 = % % % % % % % % $ $ * = = * o * = = = # X o X       ",
"          X * = = = * o * = = = * % % % & & & & & & : 5 6 ; 6 6 6 6 6 6 - : x x x x x x x x x x : # = * o * = = = * X           ",
"          X * = = = * o * = - = % x x x x x x x x x x : 3 - ; ; ; ; ; = % x c : $ $ $ $ $ $ : c x % * = o = = = = * X           ",
"          X * = = = * o * ; 6 3 % x : $ $ $ $ $ $ : x & 3 ; 6 6 6 6 6 = $ x : X . . . . . . X : x % = 2 + 2 ; - = * X           ",
"          X * = = - = o = 6 7 6 & x $ . . . . . . $ x & 3 < 6 7 7 7 6 = % x $ . X X X X X X . $ x % = 3 @ 6 6 6 ; * X           ",
"          X * - ; 6 3 O = 6 6 3 & l $ . X X X X . $ l : 2 ; 6 6 6 6 6 = % l $ . X X X X X X . $ l % = 2 + 6 7 7 6 - X           ",
"          X - 6 6 7 6 O * ; ; - % l $ . X X X X . $ l % - - ; ; ; ; ; * % l $ . X X X X X X . $ l % * - O 6 7 7 7 3 o           ",
"          o 3 7 7 7 6 O = 6 6 3 : l $ . . . . . . $ l : 3 6 6 6 6 6 6 = % l $ . X X X X X X . $ l % = 2 + 6 7 7 7 6 o           ",
"          o 6 7 7 7 6 O = 6 8 6 : z > $ $ $ $ $ $ > z : 6 7 7 7 7 7 6 = % l $ . X X X X X X . $ l % = 3 @ 6 7 7 7 6 o           ",
"          o 6 7 7 7 6 O = 6 6 3 * l z l l l l l l z l * 3 6 6 6 6 6 6 = % l $ . X X X X X X . $ l % = 3 @ 6 7 7 7 6 o           ",
"          o 6 7 7 7 6 O * ; ; ; - : : % : : : : : : * - ; ; ; ; ; ; ; * % l $ . X X X X X X . $ l % = 3 @ 6 7 7 7 6 o           ",
"          o 6 7 7 7 6 O = 6 6 6 6 6 3 - 3 6 6 6 6 6 6 6 6 6 6 6 6 6 6 = % l $ . X X X X X X . $ l % = 3 @ 6 7 7 7 6 o           ",
"          o 6 7 7 7 6 O = 6 7 7 7 8 6 ; 6 8 8 8 8 8 8 7 7 7 7 7 7 7 6 = % l $ . X X X X X X . $ l % = 3 @ 6 7 7 7 6 o           ",
"          o 6 7 7 7 6 O = 6 6 6 6 6 5 ; 5 6 6 6 6 6 6 6 6 6 6 6 6 6 6 = % l $ . X X X X X X . $ l % = 2 + 6 7 7 7 6 o           ",
"          o 6 7 7 7 6 O * ; ; ; ; ; ; - ; ; ; ; ; ; ; ; ; ; ; ; ; ; ; * % l $ . X X X X X X . $ l % * - O 6 7 7 7 6 o           ",
"          o 6 7 7 7 6 O = 6 6 6 6 6 6 6 6 6 6 6 6 6 6 6 6 6 6 6 6 6 6 = % l $ . X X X X X X . $ l % = 2 @ 6 7 7 7 6 o           ",
"          o 6 7 7 7 6 O * 3 6 6 6 6 6 6 6 6 6 6 6 6 6 6 6 6 6 6 6 6 3 * % z $ . X X X X X X . $ z % * 2 + 6 7 7 7 6 o           ",
"          o 3 6 6 6 3 o X o o o o o o o o o o o o o o o o o o o o o o X $ f $                 $ f $ X o o 3 6 6 6 3 o           ",
"            o o o o o                                                   X $ X                 X $ X       o o o o o             ",
"                                                                                                                                ",
"                                                                                                                                ",
"                                                                                                                                "
};
