/* XPM */
static char *_1e5f4641e1a48f0f188f83118997f3epzCYyvwAC4zDkp9X[] = {
/* columns rows colors chars-per-pixel */
"64 65 19 1 ",
"  c None",
". c black",
"X c gray11",
"o c #2C2D2E",
"O c #393A3B",
"+ c #3C3D3D",
"@ c #65391C",
"# c #006205",
"$ c #904E32",
"% c #FF6B00",
"& c #883840",
"* c #D07159",
"= c #009000",
"- c #FFB700",
"; c #EB9061",
": c #004FA0",
"> c #007DF0",
", c #FFCBAF",
"< c #EAE6FC",
/* pixels */
"                                                                ",
"                                                                ",
"                                                                ",
"                                                                ",
"                                                                ",
"                                                                ",
"                                                                ",
"                                                                ",
"                                                                ",
"                                                                ",
"                                    @@@@..                      ",
"                                    @@@@..                      ",
"                          @@@@@@@@@@$$$$@@..                    ",
"                          @@@@@@@@@@$$$$@@..                    ",
"                      @@@@**$$$$**$$@@@@$$@@..                  ",
"                      @@@@**$$$$**$$@@@@$$@@..                  ",
"                    ..$$**$$$$@@$$**$$$$..##..                  ",
"                    ..$$**$$$$@@$$**$$$$..##..                  ",
"                  ..$$****$$@@@@@@$$**$$$$....                  ",
"                  ..$$****$$@@@@@@$$**$$$$....                  ",
"                @@@@$$****$$$$@@$$$$**$$$$$$@@                  ",
"                @@@@$$****$$$$@@$$$$**$$$$$$@@                  ",
"                ..$$$$..@@$$$$$$$$..$$$$@@$$..                  ",
"                ..$$$$..@@$$$$$$$$..$$$$@@$$..                  ",
"                @@$$..$$**$$$$$$****..$$@@$$$$..                ",
"                @@$$..$$**$$$$$$****..$$@@$$$$..                ",
"              ..$$..$$@@$$********$$@@..$$@@@@..                ",
"              ..$$..$$@@$$********$$@@..$$@@@@..                ",
"              ..$$@@@@$$$$$$$$$$@@@@$$====$$$$$$..              ",
"              ..$$@@@@$$$$$$$$$$@@@@$$====$$$$$$..              ",
"            ..$$$$$$$$$$@@$$..$$$$$$##..##====@@..              ",
"            ..$$$$$$$$$$@@$$..$$$$$$##..##====@@..              ",
"              @@$$$$$$@@$$..@@$$@@$$==##..........              ",
"              @@$$$$$$@@$$..@@$$@@$$==##..........              ",
"              @@..$$$$@@....;;@@@@....,,$$;;@@@@                ",
"              @@..$$$$@@....;;@@@@....,,$$;;@@@@                ",
"                ........<<==,,,,,,==<<..**;;@@                  ",
"                ........<<==,,,,,,==<<..**;;@@                  ",
"                  @@**,,<<##,,,,,,##<<,,@@@@                    ",
"                  @@**,,<<##,,,,,,##<<,,@@@@                    ",
"                  @@..;;,,,,,,,,,,,,,,;;..                      ",
"                  @@..;;,,,,,,,,,,,,,,;;..                      ",
"                    ..&&;;,,,,;;,,,,;;&&..                      ",
"                    ..&&;;,,,,;;,,,,;;&&..                      ",
"                  ..++++..&&;;;;;;&&..++++..                    ",
"                  ..++++..&&;;;;;;&&..++++..                    ",
"                %%--++XXoo%%&&&&&&%%ooXX++--%%                  ",
"                %%--++XXoo%%&&&&&&%%ooXX++--%%                  ",
"              &&,,%%--..OOoo-->>--ooOO..--%%,,&&                ",
"              &&,,%%--..OOoo-->>--ooOO..--%%,,&&                ",
"              &&,,,,%%XX..ooOOOOOOoo..XX%%,,,,&&                ",
"              &&,,,,%%XX..ooOOOOOOoo..XX%%,,,,&&                ",
"                &&&&..ooooooXXXXXXooooooXX&&&&                  ",
"                &&&&..ooooooXXXXXXooooooXX&&&&                  ",
"                    ..>>XXooooooooooXX>>..                      ",
"                    ..>>XXooooooooooXX>>..                      ",
"                    ..::::..........::::..                      ",
"                    ..::::..........::::..                      ",
"                      ....          ....                        ",
"                      ....          ....                        ",
"                                                                ",
"                                                                ",
"                                                                ",
"                                                                ",
"                                                                "
};
