/* XPM */
static char *_01c08f4a19e47d3a1962e6b4dbdc52fiBuuVk84b9YdiXG1[] = {
/* columns rows colors chars-per-pixel */
"64 64 222 2 ",
"   c #B3C372",
".  c #B4C372",
"X  c #B6C772",
"o  c #BDD070",
"O  c #C0D470",
"+  c #C1D570",
"@  c #C1D470",
"#  c #B9CF6D",
"$  c #AAC566",
"%  c #A2C063",
"&  c #B1C271",
"*  c #AEC070",
"=  c #BED36F",
"-  c #BBD06E",
";  c #BBD06D",
":  c #B0C968",
">  c #AAC666",
",  c #A4B96C",
"<  c #BAD06D",
"1  c #AFC968",
"2  c #B1C470",
"3  c #A7BE6B",
"4  c #B8CA72",
"5  c #BED170",
"6  c #BBCF6F",
"7  c #B8CD6E",
"8  c #BFD370",
"9  c #A9C666",
"0  c #C1D670",
"q  c #C0D570",
"w  c #C1D770",
"e  c #BDCD6F",
"r  c #B7BF6C",
"t  c #B4B76B",
"y  c #B4B86B",
"u  c #B7BF6D",
"i  c #A59365",
"p  c #9B7C62",
"a  c #9B7D62",
"s  c #9C7E62",
"d  c #C2D870",
"f  c #C2D970",
"g  c #B5B96B",
"h  c #9A7B61",
"j  c #8D5B5C",
"k  c #8D5C5C",
"l  c #8E5E5C",
"z  c #C2DA70",
"x  c #B5BA6B",
"c  c #B4B96B",
"v  c #B0A86A",
"b  c #A68769",
"n  c #A27568",
"m  c #A27668",
"M  c #A27768",
"N  c #9A7C61",
"B  c #A78769",
"V  c #BF9B78",
"C  c #CBA580",
"Z  c #CBA57F",
"A  c #CAA47F",
"S  c #8C5A5B",
"D  c #8B5A5B",
"F  c #A17467",
"G  c #E0BD8C",
"H  c #DFBC8C",
"J  c #DEBB8B",
"K  c #CAA480",
"L  c #DEBB8C",
"P  c #DDBA8B",
"I  c #A17567",
"U  c #A07467",
"Y  c #B08770",
"T  c #CEA982",
"R  c #DDBB8B",
"E  c #DCB98A",
"W  c #D8B487",
"Q  c #9B7B62",
"!  c #8C5B5C",
"~  c #8C5C5C",
"^  c #DFBC8B",
"/  c #DDBA8A",
"(  c #8D5E5C",
")  c #A3786A",
"_  c #CCA884",
"`  c #E1C092",
"'  c #E0BF92",
"]  c #DEBD8F",
"[  c #DDBA8C",
"{  c #8D5E5B",
"}  c #A57B6D",
"|  c #D0B18F",
" . c #E7CDA1",
".. c #E6CCA0",
"X. c #E3C69A",
"o. c #8E5E5B",
"O. c #A57D6F",
"+. c #D4B696",
"@. c #EBD4AA",
"#. c #EBD3AA",
"$. c #E6CBA1",
"%. c #DFBF91",
"&. c #DCB889",
"*. c #DFBE90",
"=. c #DCB788",
"-. c #A2786B",
";. c #CAA888",
":. c #DEC097",
">. c #DDBF97",
",. c #DDBE95",
"<. c #DEBE92",
"1. c #DFBE91",
"2. c #8E5F5C",
"3. c #9C7062",
"4. c #B68C6D",
"5. c #C39B72",
"6. c #C29A71",
"7. c #CAA67D",
"8. c #DDBE94",
"9. c #E6CBA0",
"0. c #E5CA9F",
"q. c #8E5F5D",
"w. c #996B5E",
"e. c #AC7E5F",
"r. c #B5875F",
"t. c #B4865E",
"y. c #C29971",
"u. c #DCBF97",
"i. c #EAD3AA",
"p. c #EAD2A9",
"a. c #E9D1A8",
"s. c #AC7F60",
"d. c #B58860",
"f. c #B4875F",
"g. c #C29A72",
"h. c #AD8061",
"j. c #B68961",
"k. c #B68861",
"l. c #BF966F",
"z. c #D3B189",
"x. c #DCBE96",
"c. c #B78A62",
"v. c #B68962",
"b. c #B98D66",
"n. c #BF966E",
"m. c #B58760",
"M. c #B58861",
"N. c #B88C64",
"B. c #B98D64",
"V. c #BA8E64",
"C. c #AF8362",
"Z. c #9A6C5F",
"A. c #B98C64",
"S. c #BE9368",
"D. c #C1966A",
"F. c #C2976A",
"G. c #B58967",
"H. c #9C6F60",
"J. c #8D5E5D",
"K. c #986B5E",
"L. c #AD7F61",
"P. c #C59B6C",
"I. c #B58862",
"U. c #C49A6C",
"Y. c #B78C68",
"T. c #9C6F61",
"R. c #8D5D5C",
"E. c #B5BB6B",
"W. c #BBD16E",
"Q. c #B8C96C",
"!. c #B5BD6B",
"~. c #AEA669",
"^. c #A38163",
"/. c #9C6E61",
"(. c #A47762",
"). c #B28663",
"_. c #BC9066",
"`. c #C1976A",
"'. c #BB9069",
"]. c #A67A64",
"[. c #B7BE6C",
"{. c #BBD26E",
"}. c #B0CB69",
"|. c #A6B465",
" X c #9E8D62",
".X c #997961",
"XX c #A17F63",
"oX c #B08866",
"OX c #B88C68",
"+X c #B98E68",
"@X c #BF946A",
"#X c #C3996C",
"$X c #C1976B",
"%X c #BA8F69",
"&X c #A39065",
"*X c #A48364",
"=X c #BB9369",
"-X c #C69C6C",
";X c #C69B6C",
":X c #987961",
">X c #987860",
",X c #B8B06B",
"<X c #C1A26C",
"1X c #C59A6C",
"2X c #B3B76B",
"3X c #C1D870",
"4X c #C2C86F",
"5X c #C3A86D",
"6X c #C4986C",
"7X c #C4996C",
"8X c #C2C76F",
"9X c #C1C96F",
"0X c #C2B36E",
"qX c #C3A76D",
"wX c #C3A56D",
"eX c #C49D6C",
"rX c #C0D170",
"tX c #C1C66F",
"yX c #C1C76F",
"uX c #C2BB6E",
"iX c #C0D670",
"pX c white",
/* pixels */
"                . .                   X o O O O + + O O O O + + O O O O O O O O O O O O O O O O O O O O O O O O O O O O @ # $ % ",
"              & * * &                 X o O O = - - = O O = - - = O O O O O O O O O O O O O O O O O O O O O O O O O O O O ; : > ",
"              * , , *                 X o + + < 1 1 < + + < 1 1 < @ O O O O O O O O O O O O O O O O @ @ O O O O O O O O O = - # ",
"X X X X X X X 2 3 3 2 X X X X X X X X 4 5 + + < 1 1 < + + < 1 1 < @ O O O O O O O O O O O O O O O = - - = O O O O O O O O O + + ",
"o o o o o o o 6 7 7 6 o o o o o o o o 5 8 O O = - - = O O = - - = O O O O O O O O O O O O O O O @ < 1 1 < @ O O O O O O O O + + ",
"O O O O O O O O + + O O O O O O O O O O O O O O @ @ O O O O @ @ O O O O O O O O O O O O O O O O @ < 1 1 < @ O O O O O O O = - # ",
"O O O O O O O O @ @ O O O O O O O O O O O O O O O O O O O O O O O O O O O O O O O O O O O O O O O = - - = O O O O O O O @ < 1 9 ",
"O O O O O O O O O O O O O O O O O O O O O O O O O O O O O O O O O O O O O O O O O O O O O O O O O O @ @ O O O O O O O O @ < 1 9 ",
"O O O O O O O O O O O O O O O O O O O O O O O O O O O O O O O O O O O O O O O O O O O O O O O O O O O O O O O O O O O O O = - # ",
"O O O O O O O O O O O O O O O O O O O O O O O O O O O O O O O O O O O O O O O O O O O O O O O O O O O O O O O O O O O O O O @ @ ",
"O O O O O O O O O O O O O O O O O O O O O O O O O O O O O O O O O O O O O O O O @ @ O O O O O O O O O O O O O O O O O O O O O O ",
"O O O O O O O O O O O O O O O O O O O O O O O O O O O O O O O O O O O O O O O = - - = O O O O O O O O O O O O O O O O O O O O O ",
"O O O O O O O O O O O O O O @ @ O O O O O O O O O O O O O O O O O O O O O O @ < 1 1 < @ O O O O O O O O O O @ @ O O O O O O O O ",
"O O O O O O O O O O O O O = - - = O O O O O O O O O O O O O O O O O O O O O @ < 1 1 < @ O O O O O O O O O = - - = O O O O O O O ",
"O O O O O O O O O O O O @ < 1 1 < @ O O O O O O O O O O O O O O O O O O O O O = - - = O O O O O O O O O @ < 1 1 < @ O O O O O O ",
"O O O O O O O O O O O O @ < 1 1 < @ O O O O O O 0 0 0 0 0 0 0 0 0 0 0 0 0 0 0 0 @ @ O O O O O O O O O O @ < 1 1 < @ O O O O O O ",
"O O O O O O O O O O O O O = - - = O O O O O O q 0 w w w w w w w w w w w w w w 0 q O O O O O O O O O O O O = - - = O O O O O O O ",
"O O O O O O O O O O O O O O @ @ O O O O O O q e r t y y y y y y y y y y y y t r e q O O O O O O O O O O O O @ @ O O O O O O O O ",
"O O O O O O O O O O O O O O O O O O O O O + 0 u i p a s s s s s s s s s s a p i u 0 + O O O O O O O O O O O O O O O O O O O O O ",
"O O O O O O O O O O O O O O O O O O O O 0 d f g h j k l l l l l l l l l l k j h g f d 0 O O O O O O O O O O O O O O O O O O O O ",
"O O O O O O O O O O O O O O O O O O O q 0 f z x h j k l l l l l l l l l l k j h x z f 0 q O O O O O O O O O O O O O O O O O O O ",
"O O O O O O O O O O O O O O O O O O q e r y c v b n m M M M M M M M M M M m n b v c y r e q O O O O O O O O O O O O O O O O O O ",
"O O O O O O O O O O O O O O O O O + 0 u i h N B V C Z A A A A A A A A A A Z C V B N h i u 0 + O O O O O O O O O O O O O O O O O ",
"O O O O O O O O O O O O O O O O 0 d f g h S D F C G H J J J J J J J J J J H G C F D S h g f d 0 O O O O O O O O O O O O O O O O ",
"O O O O O O O O O O O O O O O q 0 f z x h S D F K H L P P P P P P P P P P L H K F D S h x z f 0 q O O O O O O O O O O O O O O O ",
"O O O O O O O O O O O O O O q e r y c v b I U Y T R P E E E E E E E E E E P R T Y U I b v c y r e q O O O O O O O O O O O O O O ",
"O O O O O O O O O O O O O + 0 u i h N B V C A T W E E E E E E E E E E E E E E W T A C V B N h i u 0 + O O O O O O O O O O O O O ",
"O O O O O O O O O O O O O 0 w y Q j ! n C G H J E E E E E E E E E E E E E E E E J H G C n ! j Q y w 0 O O O O O O O O O O O O O ",
"O O O O O O O O O O O O O 0 w y p k ~ m A ^ J / E E E E E E E E E E E E E E E E / J ^ A m ~ k p y w 0 O O O O O O O O O O O O O ",
"O O O O O O O O O O O O O 0 w y s l ( ) _ ` ' ] [ E E E E E E E E E E E E E E [ ] ' ` _ ) ( l s y w 0 O O O O O O O O O O O O O ",
"O O O O @ @ O O O O O O O 0 w y s l { } |  ...X.] E E E E E E E E E E E E E E ] X... .| } { l s y w 0 O O O O O O O O O @ @ O O ",
"O O O = - - = O O O O O O 0 w y s o.{ O.+.@.#.$.%.&.E E E E E E E E E E E E &.%.$.#.@.+.O.{ o.s y w 0 O O O O O O O O = - - = O ",
"O O @ < 1 1 < @ O O O O O 0 w y s o.{ O.+.@.#.$.*.=.&.&.&.&.&.&.&.&.&.&.&.&.=.*.$.#.@.+.O.{ o.s y w 0 O O O O O O O @ < 1 1 < @ ",
"O O @ < 1 1 < @ O O O O O 0 w y s l o.-.;.:.>.,.<.1.1.1.1.1.1.1.1.1.1.1.1.1.1.<.,.>.:.;.-.o.l s y w 0 O O O O O O O @ < 1 1 < @ ",
"O O O = - - = O O O O O O 0 w y s 2.2.3.4.5.6.7.8.9.9.0.0.0.0.0.0.0.0.0.0.9.9.8.7.6.5.4.3.2.2.s y w 0 O O O O O O O O = - - = O ",
"O O O O @ @ O O O O O O O 0 w y s q.q.w.e.r.t.y.u.i.p.a.a.a.a.a.a.a.a.a.a.p.i.u.y.t.r.e.w.q.q.s y w 0 O O O O O O O O O @ @ O O ",
"O O O O O O O O O O O O O 0 w y s 2.q.w.s.d.f.g.u.i.p.a.a.a.a.a.a.a.a.a.a.p.i.u.g.f.d.s.w.q.2.s y w 0 O O O O O O O O O O O O O ",
"O O O O O O O O O O O O O 0 w y s 2.q.w.h.j.k.l.z.>.>.x.x.x.x.x.x.x.x.x.x.>.>.z.l.k.j.h.w.q.2.s y w 0 O O O O O O O O O O O O O ",
"O O O O O O O O O O O O O 0 w y s 2.q.w.h.c.v.b.n.g.g.g.g.g.g.g.g.g.g.g.g.g.g.n.b.v.c.h.w.q.2.s y w 0 O O O O O O O O O O O O O ",
"O O O O O O O O O O O O O 0 w y s 2.q.w.h.c.c.v.m.m.m.m.m.m.m.m.m.m.m.m.m.m.m.m.v.c.c.h.w.q.2.s y w 0 O O O O O O O O O O O O O ",
"O O O O O O O O O O O O O 0 w y s 2.q.w.h.c.c.v.M.M.M.M.M.M.M.M.M.M.M.M.M.M.M.M.v.c.c.h.w.q.2.s y w 0 O O O O O O O O O O O O O ",
"O O O O O O O O O O O O O 0 w y s 2.q.w.h.c.v.c.N.B.B.N.c.v.v.c.N.B.B.B.B.B.B.B.B.V.V.C.Z.q.2.s y w 0 O O O O O O O O O O O O O ",
"O O O O O O O O O O O O O 0 w y s 2.q.w.h.c.v.A.S.D.D.S.A.v.v.A.S.D.D.D.D.D.D.D.D.F.F.G.H.2.2.s y w 0 O O O O O O O O O O O O O ",
"O O O O O O O O O O O O 0 d f x a ( J.K.L.c.v.B.D.P.P.D.B.I.I.B.D.U.U.U.U.U.U.U.U.P.P.Y.T.( R.a x f d 0 O O O O O O O O O O O O ",
"O O O O O O O O O O @ + 0 f z E.a ( J.K.L.c.v.B.D.P.P.D.B.I.I.B.D.U.U.U.U.U.U.U.U.P.P.Y.T.( R.a E.z f 0 q O O O O O O O O O O O ",
"O O O O O O O O O = W.Q.!.t y ~.^././.(.).B.B._.`.U.U.`._.B.B._.`.U.U.U.U.U.U.U.U.P.P.'.]././.^.~.y t [.e q O O O O O O O O O O ",
"O O O O O O O O @ {.}.|. X.X.XXXoXOXY.+X@XD.D.F.#XU.U.#XF.D.D.F.#XU.U.U.U.U.U.U.U.U.U.$X%XY.Y.oXXX.X.X&Xr 0 + O O O O O O O @ @ ",
"O O O O O O O O @ {.}.|. X.X.X*X=X-X;XP.U.U.U.U.U.U.U.U.U.U.U.U.U.U.U.U.U.U.U.U.U.U.U.U.P.;X-X=X*X:X>X&Xr 0 + O O O O O O = - # ",
"O O O O O O O O O = W.Q.!.t t ,X<X1XP.P.U.U.U.U.U.U.U.U.U.U.U.U.U.U.U.U.U.U.U.U.U.U.U.U.P.P.1X<X,X2X2X[.e q O O O O O O @ < 1 9 ",
"O O O O O O O O O O @ + 0 3X3X4X5X6X6X7X7X7X7X7X7X7X7X7XU.U.U.U.U.U.U.U.7X7X7X7X7X7X7X7X7X6X6X5X4X3X3X0 q O O O O O O O @ < 1 9 ",
"O O O O O O O O O O O O 0 w w 8X5X6X6X7X7X7X7X7X7X7X7X7XU.U.U.U.U.U.U.U.7X7X7X7X7X7X7X7X7X6X6X5X8Xw w 0 O O O O O O O O O = - # ",
"O O O O O O O O O O O O O q q 9X0XqXqX5X5X5X5X5X5X5X5XwXeXU.U.U.U.U.U.eXwX5X5X5X5X5X5X5X5XqXqX0X9Xq q O O O O O O O O O O O @ @ ",
"O O O O O O O O O O O O O O O rX9XtXtXtXtXtXtXtXtXyXyXuXwX7X7XU.U.7X7XwXuXyXyXtXtXtXtXtXtXtXtX9XrXO O O O O O O O O O O O O O O ",
"O O O O O O O O O O O O O O O O q q q q q q q q q iXiXyXqX6X6X7X7X6X6XqXyXiXiXq q q q q q q q q O O O O O O O O O O O O O O O O ",
"O O O O O O O O O O O O O O O O q q q q q q q q q iXiXyXqX6X6X7X7X6X6XqXyXiXiXq q q q q q q q q O O O O O O O O O O O O O O O O ",
"O O O O O O O O O O O O O O O O O O O O O O O O O q q 9X0XqXqX5X5XqXqX0X9Xq q O O O O O O O O O O O O O O O O O O O O O O O O O ",
"O O O O O O O O O O O O O O O O O O O O O O O O O O O rX9XtXtXtXtXtXtX9XrXO O O O O O O O O O O O O O O O O O O @ @ O O O O O O ",
"O O O O O O O O O O O O O O O O O O O O O O O O O O O O q q q q q q q q O O O O O O O O O O O O O O O O O O O = - - = O O O O O ",
"O O O O O O O O O O O O O O O O O O O O O O O O O O O O q q q q q q q q O O O O O O O O O O O O O O O O O O @ < 1 1 < @ O O O O ",
"O O O O O O O O O O O O O O O O O O O O O O O O O O O O O O O O O O O O O O O O O O O O O O O O O O O O O O @ < 1 1 < @ O O O O ",
"O O O O O O O O O O O O O O O O O O O O O O O O O O O O O O O O O O O O O O O O O O O O O O O O O O O O O O O = - - = O O O O O ",
"O O O O O O O O O O O O O O O O O O O O O O O O O O O O O O O O O O O O O O O O O O O O O O O O O O O O O O O O @ @ O O O O O O ",
"O O O O O O O O O O O O O O O O O O O O O O O O O O O O O O O O O O O O O O O O O O O O O O O O O O O O O O O O O O O O O O O O ",
"O O O O O O O O O O O O O O O O O O O O O O O O O O O O O O O O O O O O O O O O O O O O O O O O O O O O O O O O O O O O O O O O "
};
